<svg width="24" height="24" viewBox="0 0 24 24" fill="none" xmlns="http://www.w3.org/2000/svg">
<mask id="mask0" mask-type="alpha" maskUnits="userSpaceOnUse" x="4" y="14" width="16" height="8">
<path fill-rule="evenodd" clip-rule="evenodd" d="M4 14.4961H19.8399V21.8701H4V14.4961Z" fill="white"/>
</mask>
<g mask="url(#mask0)">
<path fill-rule="evenodd" clip-rule="evenodd" d="M11.9209 15.9961C7.65991 15.9961 5.49991 16.7281 5.49991 18.1731C5.49991 19.6311 7.65991 20.3701 11.9209 20.3701C16.1809 20.3701 18.3399 19.6381 18.3399 18.1931C18.3399 16.7351 16.1809 15.9961 11.9209 15.9961ZM11.9209 21.8701C9.96191 21.8701 3.99991 21.8701 3.99991 18.1731C3.99991 14.8771 8.52091 14.4961 11.9209 14.4961C13.8799 14.4961 19.8399 14.4961 19.8399 18.1931C19.8399 21.4891 15.3199 21.8701 11.9209 21.8701Z" fill="black"/>
</g>
<mask id="mask1" mask-type="alpha" maskUnits="userSpaceOnUse" x="6" y="2" width="12" height="11">
<path fill-rule="evenodd" clip-rule="evenodd" d="M6.60986 2.0001H17.2299V12.6187H6.60986V2.0001Z" fill="white"/>
</mask>
<g mask="url(#mask1)">
<path fill-rule="evenodd" clip-rule="evenodd" d="M11.9209 3.4277C9.77989 3.4277 8.03789 5.1687 8.03789 7.3097C8.03089 9.4437 9.75989 11.1837 11.8919 11.1917L11.9209 11.9057V11.1917C14.0609 11.1917 15.8019 9.4497 15.8019 7.3097C15.8019 5.1687 14.0609 3.4277 11.9209 3.4277ZM11.9209 12.6187H11.8889C8.9669 12.6097 6.59989 10.2267 6.60989 7.3067C6.60989 4.3817 8.99189 1.9997 11.9209 1.9997C14.8489 1.9997 17.2299 4.3817 17.2299 7.3097C17.2299 10.2377 14.8489 12.6187 11.9209 12.6187Z" fill="black"/>
</g>
</svg>
